<svg xmlns="http://www.w3.org/2000/svg" viewBox="0 0 1106.67 34.87"><defs><style>.cls-1{fill:none;stroke:#fff;stroke-miterlimit:10;stroke-width:0.34px;}</style></defs><g id="Layer_2" data-name="Layer 2"><g id="Layer_1-2" data-name="Layer 1"><path class="cls-1" d="M31.37,6.64l-4.28,4.08Q22.71,6.1,17.25,6.1A10.78,10.78,0,0,0,6.31,17a11.51,11.51,0,0,0,1.4,5.72,10,10,0,0,0,4,3.92,11.41,11.41,0,0,0,5.68,1.42,11.72,11.72,0,0,0,4.88-1,17.65,17.65,0,0,0,4.86-3.63l4.15,4.34a22.67,22.67,0,0,1-6.74,4.82A18.18,18.18,0,0,1,17.26,34,16.65,16.65,0,0,1,5,29.22,16.45,16.45,0,0,1,.18,17,16.79,16.79,0,0,1,2.36,8.46a16.14,16.14,0,0,1,6.24-6A17.62,17.62,0,0,1,17.34.18a18.57,18.57,0,0,1,14,6.46Z"/><path class="cls-1" d="M55.33,1h6.15V21.8A10.85,10.85,0,0,0,62,25.6a3.81,3.81,0,0,0,1.56,1.78,4.78,4.78,0,0,0,2.61.67,5.08,5.08,0,0,0,2.79-.74,4,4,0,0,0,1.62-1.89A14.12,14.12,0,0,0,71,21V1h6.15V20.17a27.71,27.71,0,0,1-.55,6.74,9.34,9.34,0,0,1-2.09,3.67,9.62,9.62,0,0,1-3.55,2.6,12,12,0,0,1-4.69.84,11.35,11.35,0,0,1-6.09-1.61,9.25,9.25,0,0,1-3.71-4c-.74-1.62-1.12-4.34-1.12-8.18Z"/><polygon class="cls-1" points="33.56 0.98 51.35 0.98 51.35 7.02 45.49 7.02 45.49 33.17 39.27 33.17 39.27 7.02 33.56 7.02 33.56 0.98"/><path class="cls-1" d="M84.66,1h6.49c3.56,0,6.09.34,7.6,1a7.78,7.78,0,0,1,3.64,3.16,9.66,9.66,0,0,1,1.38,5.18,8.87,8.87,0,0,1-1.53,5.31,9.16,9.16,0,0,1-4.58,3.23l7.63,14.31h-6.7L91.35,19.58h-.58V33.21H84.66Zm6.11,12.6h1.92a7.29,7.29,0,0,0,4-.77,2.87,2.87,0,0,0,1.1-2.54,3.12,3.12,0,0,0-.54-1.84,3.06,3.06,0,0,0-1.46-1.12A11.54,11.54,0,0,0,92.43,7H90.77Z"/><polygon class="cls-1" points="110.27 0.98 127.84 0.98 127.84 6.98 116.35 6.98 116.35 12.8 127.84 12.8 127.84 18.69 116.35 18.69 116.35 27.15 127.84 27.15 127.84 33.17 110.27 33.17 110.27 0.98"/><path class="cls-1" d="M150.44,5.36l-4.53,4Q143.51,6,141,6a3,3,0,0,0-2,.65,1.87,1.87,0,0,0-.77,1.45,2.46,2.46,0,0,0,.55,1.54,39.89,39.89,0,0,0,4.49,4.13c2.34,2,3.76,3.2,4.25,3.7a13,13,0,0,1,2.65,3.6,9.21,9.21,0,0,1,.77,3.76,8.59,8.59,0,0,1-2.73,6.54A10,10,0,0,1,141.1,34a10.63,10.63,0,0,1-6-1.68,13.34,13.34,0,0,1-4.37-5.3l5.15-3.11q2.33,4.29,5.35,4.27a3.93,3.93,0,0,0,2.65-.92A2.71,2.71,0,0,0,145,25.12a3.74,3.74,0,0,0-.82-2.19,23.12,23.12,0,0,0-3.57-3.35q-5.26-4.29-6.8-6.62a8.41,8.41,0,0,1-1.53-4.65,7.59,7.59,0,0,1,2.55-5.74,8.87,8.87,0,0,1,6.3-2.4,9.91,9.91,0,0,1,4.59,1.12A16.46,16.46,0,0,1,150.44,5.36Z"/><path class="cls-1" d="M164.84,1h6.5c3.52,0,6,.32,7.61,1a7.83,7.83,0,0,1,3.67,3.15A9.77,9.77,0,0,1,184,10.35,8.83,8.83,0,0,1,182.21,16a9.1,9.1,0,0,1-4.79,3.1,26.85,26.85,0,0,1-6.45.51V33.2h-6.13ZM171,13.58h2a10.11,10.11,0,0,0,3.19-.33,2.85,2.85,0,0,0,1.41-1.08,3.13,3.13,0,0,0,.52-1.84,2.93,2.93,0,0,0-1.45-2.72A8.37,8.37,0,0,0,172.75,7H171Z"/><path class="cls-1" d="M232.09,6.64l-4.32,4.08q-4.38-4.62-9.84-4.62A10.79,10.79,0,0,0,207,16.72V17a11.51,11.51,0,0,0,1.4,5.72,10.12,10.12,0,0,0,4,3.92,11.42,11.42,0,0,0,5.69,1.42,11.64,11.64,0,0,0,4.87-1,17.65,17.65,0,0,0,4.86-3.63L232,27.8a22.49,22.49,0,0,1-6.74,4.82A18.16,18.16,0,0,1,218,34a16.65,16.65,0,0,1-12.29-4.76A16.48,16.48,0,0,1,200.91,17a16.69,16.69,0,0,1,2.17-8.56,16.2,16.2,0,0,1,6.24-6A17.6,17.6,0,0,1,218.06.17a18.51,18.51,0,0,1,14,6.47Z"/><path class="cls-1" d="M256.06,1h6.15V21.8a10.59,10.59,0,0,0,.47,3.8,3.74,3.74,0,0,0,1.55,1.78,4.82,4.82,0,0,0,2.62.67,5.08,5.08,0,0,0,2.79-.74,4,4,0,0,0,1.62-1.89A14.42,14.42,0,0,0,271.7,21V1h6.15V20.17a28.21,28.21,0,0,1-.54,6.74,9.51,9.51,0,0,1-2.09,3.63,9.65,9.65,0,0,1-3.56,2.6A11.9,11.9,0,0,1,267,34a11.3,11.3,0,0,1-6.1-1.61,9.25,9.25,0,0,1-3.71-4c-.74-1.62-1.11-4.34-1.11-8.18Z"/><rect class="cls-1" x="189.53" y="7.78" width="6.08" height="25.4"/><polygon class="cls-1" points="234.28 0.98 252.08 0.98 252.08 7.02 246.21 7.02 246.21 33.17 239.99 33.17 239.99 7.02 234.28 7.02 234.28 0.98"/><path class="cls-1" d="M285.38,1h6.49c3.56,0,6.09.34,7.6,1a7.78,7.78,0,0,1,3.64,3.16,9.63,9.63,0,0,1,1.38,5.23A8.86,8.86,0,0,1,303,15.68a9.25,9.25,0,0,1-4.59,3.23L306,33.22h-6.7l-7.24-13.64h-.56V33.21h-6.13Zm6.13,12.6h1.92a7.29,7.29,0,0,0,4-.77,2.88,2.88,0,0,0,1.11-2.54A3.18,3.18,0,0,0,298,8.43a3.06,3.06,0,0,0-1.46-1.12A11.54,11.54,0,0,0,293.17,7h-1.68Z"/><polygon class="cls-1" points="310.99 0.98 328.56 0.98 328.56 6.98 317.07 6.98 317.07 12.8 328.56 12.8 328.56 18.69 317.07 18.69 317.07 27.15 328.56 27.15 328.56 33.17 310.99 33.17 310.99 0.98"/><path class="cls-1" d="M351.17,5.36l-4.54,4Q344.23,6,341.76,6a3,3,0,0,0-2,.65A1.9,1.9,0,0,0,339,8.13a2.46,2.46,0,0,0,.55,1.54A39.89,39.89,0,0,0,344,13.8c2.34,2,3.76,3.2,4.26,3.7a13.17,13.17,0,0,1,2.64,3.6,9.06,9.06,0,0,1,.78,3.76A8.59,8.59,0,0,1,349,31.4,10,10,0,0,1,341.82,34a10.63,10.63,0,0,1-6-1.68,13.34,13.34,0,0,1-4.37-5.3l5.15-3.11c1.55,2.86,3.34,4.28,5.35,4.27a3.93,3.93,0,0,0,2.65-.92,2.71,2.71,0,0,0,1.08-2.12,3.66,3.66,0,0,0-.81-2.19,23.19,23.19,0,0,0-3.58-3.35Q336,15.29,334.5,13A8.34,8.34,0,0,1,333,8.31a7.6,7.6,0,0,1,2.56-5.74,8.84,8.84,0,0,1,6.29-2.4,9.91,9.91,0,0,1,4.59,1.12A17,17,0,0,1,351.17,5.36Z"/><path class="cls-1" d="M190.73.7h3.66a1.22,1.22,0,0,1,1.22,1.22V5.43a1.23,1.23,0,0,1-1.23,1.23h-3.66a1.23,1.23,0,0,1-1.23-1.23V1.92A1.24,1.24,0,0,1,190.73.7Z"/><path class="cls-1" d="M364.85,1.34h6.5c3.52,0,6,.32,7.61,1a7.83,7.83,0,0,1,3.67,3.15A9.77,9.77,0,0,1,384,10.71a8.8,8.8,0,0,1-1.76,5.6,9.15,9.15,0,0,1-4.78,3.11,27.45,27.45,0,0,1-6.46.5V33.58h-6.13ZM371,13.92h2a10.11,10.11,0,0,0,3.19-.33,2.77,2.77,0,0,0,1.41-1.09,3.12,3.12,0,0,0,.52-1.83A2.91,2.91,0,0,0,376.65,8a8.1,8.1,0,0,0-3.89-.64H371Z"/><path class="cls-1" d="M432.1,7l-4.28,4.09Q423.44,6.46,418,6.46A10.79,10.79,0,0,0,407,17.08v.31a11.48,11.48,0,0,0,1.4,5.71,10.08,10.08,0,0,0,4,3.93,12.19,12.19,0,0,0,10.56.42,17.23,17.23,0,0,0,4.86-3.62L432,28.16A22.7,22.7,0,0,1,425.27,33,18.16,18.16,0,0,1,418,34.34a16.66,16.66,0,0,1-12.33-4.76,16.48,16.48,0,0,1-4.78-12.2,16.69,16.69,0,0,1,2.17-8.56,16.35,16.35,0,0,1,6.24-6A17.69,17.69,0,0,1,418.07.58a18.57,18.57,0,0,1,14,6.46Z"/><path class="cls-1" d="M456.07,1.33h6.15V22.15a10.68,10.68,0,0,0,.47,3.81,3.79,3.79,0,0,0,1.55,1.78,4.82,4.82,0,0,0,2.62.67,5,5,0,0,0,2.79-.75,3.89,3.89,0,0,0,1.62-1.89,14.35,14.35,0,0,0,.44-4.38V1.33h6.15V20.58a28.21,28.21,0,0,1-.54,6.74,10.31,10.31,0,0,1-5.65,6.22,11.74,11.74,0,0,1-4.68.85,11.3,11.3,0,0,1-6.1-1.61,9.37,9.37,0,0,1-3.71-4c-.74-1.61-1.11-4.34-1.11-8.17Z"/><rect class="cls-1" x="389.54" y="8.13" width="6.08" height="25.4"/><polygon class="cls-1" points="434.29 1.34 452.09 1.34 452.09 7.38 446.22 7.38 446.22 33.53 440 33.53 440 7.38 434.29 7.38 434.29 1.34"/><path class="cls-1" d="M485.39,1.34h6.49c3.56,0,6.09.31,7.6,1a7.73,7.73,0,0,1,3.64,3.16,9.63,9.63,0,0,1,1.38,5.23A9,9,0,0,1,503,16a9.23,9.23,0,0,1-4.59,3.22L506,33.58h-6.7l-7.24-13.64h-.56V33.58h-6.13Zm6.13,12.58h1.92a7.49,7.49,0,0,0,4-.77,2.85,2.85,0,0,0,1.13-2.57A3.15,3.15,0,0,0,498,8.75a3.06,3.06,0,0,0-1.46-1.12,11.2,11.2,0,0,0-3.36-.34h-1.68Z"/><polygon class="cls-1" points="511 1.34 528.57 1.34 528.57 7.33 517.08 7.33 517.08 13.15 528.57 13.15 528.57 19.04 517.08 19.04 517.08 27.51 528.57 27.51 528.57 33.53 511 33.53 511 1.34"/><path class="cls-1" d="M551.18,5.71l-4.54,4c-1.59-2.22-3.22-3.33-4.87-3.33a3,3,0,0,0-2,.65A1.87,1.87,0,0,0,539,8.48a2.43,2.43,0,0,0,.55,1.53A41.87,41.87,0,0,0,544,14.15c2.34,2,3.76,3.19,4.26,3.7a12.77,12.77,0,0,1,2.64,3.6,9,9,0,0,1,.78,3.75A8.59,8.59,0,0,1,549,31.74a10,10,0,0,1-7.14,2.59,10.64,10.64,0,0,1-6-1.69,13.31,13.31,0,0,1-4.37-5.29l5.15-3.11c1.55,2.84,3.34,4.27,5.35,4.27a3.93,3.93,0,0,0,2.65-.92,2.73,2.73,0,0,0,1.08-2.13,3.66,3.66,0,0,0-.81-2.19,23.62,23.62,0,0,0-3.58-3.34q-5.25-4.29-6.79-6.62A8.42,8.42,0,0,1,533,8.66a7.59,7.59,0,0,1,2.56-5.75,8.87,8.87,0,0,1,6.3-2.4,10,10,0,0,1,4.59,1.12A16.77,16.77,0,0,1,551.18,5.71Z"/><rect class="cls-1" x="389.52" y="1.05" width="6.11" height="5.96" rx="1.23"/><path class="cls-1" d="M564.51,1.34H571c3.51,0,6,.32,7.6,1a7.8,7.8,0,0,1,3.68,3.15,9.76,9.76,0,0,1,1.34,5.22,8.66,8.66,0,0,1-1.76,5.6,9,9,0,0,1-4.78,3.11,27.45,27.45,0,0,1-6.46.5V33.58h-6.12Zm6.12,12.58h2a10.42,10.42,0,0,0,3.19-.34,2.82,2.82,0,0,0,1.41-1.09,3.19,3.19,0,0,0,.51-1.83,2.91,2.91,0,0,0-1.44-2.72,8.16,8.16,0,0,0-3.9-.64h-1.73Z"/><path class="cls-1" d="M631.77,7l-4.29,4.09q-4.37-4.62-9.84-4.62a10.79,10.79,0,0,0-10.93,10.63v.3a11.48,11.48,0,0,0,1.4,5.71,10,10,0,0,0,4,3.93,11.41,11.41,0,0,0,5.68,1.42,11.57,11.57,0,0,0,4.88-1,17.23,17.23,0,0,0,4.85-3.62l4.16,4.33A23,23,0,0,1,624.94,33a18.2,18.2,0,0,1-7.25,1.35,16.69,16.69,0,0,1-12.34-4.76,16.49,16.49,0,0,1-4.78-12.2,16.79,16.79,0,0,1,2.18-8.56,16.2,16.2,0,0,1,6.24-6A17.63,17.63,0,0,1,617.77.58a18.6,18.6,0,0,1,14,6.46Z"/><path class="cls-1" d="M655.77,1.33h6.15V22.15a10.91,10.91,0,0,0,.47,3.81A3.81,3.81,0,0,0,664,27.74a4.78,4.78,0,0,0,2.61.67,5,5,0,0,0,2.79-.75A3.89,3.89,0,0,0,671,25.77a14,14,0,0,0,.45-4.38V1.33h6.15V20.58a27.71,27.71,0,0,1-.55,6.74,10.34,10.34,0,0,1-5.64,6.22,11.78,11.78,0,0,1-4.69.85,11.35,11.35,0,0,1-6.09-1.61,9.25,9.25,0,0,1-3.71-4c-.75-1.61-1.12-4.34-1.12-8.17Z"/><rect class="cls-1" x="589.19" y="8.13" width="6.08" height="25.4"/><polygon class="cls-1" points="633.95 1.34 651.74 1.34 651.74 7.38 645.88 7.38 645.88 33.53 639.66 33.53 639.66 7.38 633.95 7.38 633.95 1.34"/><path class="cls-1" d="M685.05,1.34h6.49c3.55,0,6.09.31,7.6,1a7.78,7.78,0,0,1,3.64,3.16,9.73,9.73,0,0,1,1.37,5.23A8.86,8.86,0,0,1,702.63,16a9.19,9.19,0,0,1-4.58,3.22l7.62,14.32H699l-7.2-13.69h-.57V33.58h-6.12Zm6.12,12.58h1.92a7.49,7.49,0,0,0,4-.77,2.88,2.88,0,0,0,1.1-2.55,3,3,0,0,0-2-2.95,11.2,11.2,0,0,0-3.36-.34h-1.65Z"/><polygon class="cls-1" points="710.65 1.34 728.23 1.34 728.23 7.33 716.74 7.33 716.74 13.15 728.23 13.15 728.23 19.04 716.74 19.04 716.74 27.51 728.23 27.51 728.23 33.53 710.65 33.53 710.65 1.34"/><path class="cls-1" d="M750.83,5.71l-4.54,4q-2.38-3.33-4.86-3.33a3,3,0,0,0-2,.65,1.89,1.89,0,0,0-.76,1.45,2.54,2.54,0,0,0,.54,1.53,42,42,0,0,0,4.5,4.14c2.34,2,3.75,3.19,4.25,3.7a12.77,12.77,0,0,1,2.64,3.6,9,9,0,0,1,.78,3.75,8.59,8.59,0,0,1-2.74,6.54,9.89,9.89,0,0,1-7.14,2.59,10.64,10.64,0,0,1-6-1.69,13.31,13.31,0,0,1-4.37-5.29l5.15-3.11c1.55,2.84,3.33,4.27,5.35,4.27a3.93,3.93,0,0,0,2.65-.92,2.77,2.77,0,0,0,1.07-2.13,3.66,3.66,0,0,0-.81-2.19A24,24,0,0,0,741,19.93q-5.26-4.29-6.8-6.62a8.41,8.41,0,0,1-1.53-4.65,7.61,7.61,0,0,1,2.55-5.75,8.87,8.87,0,0,1,6.3-2.4,10,10,0,0,1,4.59,1.12A16.61,16.61,0,0,1,750.83,5.71Z"/><path class="cls-1" d="M590.4,1.05h3.66a1.23,1.23,0,0,1,1.23,1.23V5.79A1.23,1.23,0,0,1,594.06,7H590.4a1.22,1.22,0,0,1-1.22-1.22V2.29a1.23,1.23,0,0,1,1.22-1.24Z"/><path class="cls-1" d="M764.52,1.69H771c3.51,0,6,.32,7.6,1a7.82,7.82,0,0,1,3.68,3.16,9.75,9.75,0,0,1,1.34,5.21,8.71,8.71,0,0,1-1.76,5.61,9.07,9.07,0,0,1-4.78,3.1,26.94,26.94,0,0,1-6.46.51v13.6h-6.12Zm6.12,12.58h2a10.14,10.14,0,0,0,3.2-.33,2.85,2.85,0,0,0,1.41-1.08,3.22,3.22,0,0,0,.51-1.84,2.93,2.93,0,0,0-1.44-2.72,8.41,8.41,0,0,0-3.9-.64h-1.73Z"/><path class="cls-1" d="M831.77,7.35l-4.29,4.08q-4.37-4.62-9.84-4.62a10.8,10.8,0,0,0-10.93,10.65v.28a11.51,11.51,0,0,0,1.4,5.72,10,10,0,0,0,4,3.92,11.39,11.39,0,0,0,5.68,1.43,11.72,11.72,0,0,0,4.88-1,17.08,17.08,0,0,0,4.85-3.63l4.16,4.34a23,23,0,0,1-6.74,4.83,18.37,18.37,0,0,1-7.25,1.34A17.15,17.15,0,0,1,802.77,9.17a16.14,16.14,0,0,1,6.24-6A17.68,17.68,0,0,1,817.77.88a18.58,18.58,0,0,1,14,6.47Z"/><path class="cls-1" d="M855.77,1.69h6.15V22.51a10.85,10.85,0,0,0,.47,3.8A3.78,3.78,0,0,0,864,28.1a4.88,4.88,0,0,0,2.61.66,5.08,5.08,0,0,0,2.79-.74A4,4,0,0,0,871,26.13a14.12,14.12,0,0,0,.45-4.39v-20h6.15V20.88a27.71,27.71,0,0,1-.55,6.74,9.47,9.47,0,0,1-2.09,3.64,9.63,9.63,0,0,1-3.56,2.59,11.9,11.9,0,0,1-4.68.84,11.18,11.18,0,0,1-6.09-1.61,9.25,9.25,0,0,1-3.71-4q-1.12-2.43-1.12-8.2Z"/><rect class="cls-1" x="789.2" y="8.49" width="6.08" height="25.4"/><polygon class="cls-1" points="833.96 1.69 851.75 1.69 851.75 7.73 845.89 7.73 845.89 33.88 839.67 33.88 839.67 7.73 833.96 7.73 833.96 1.69"/><path class="cls-1" d="M885.06,1.69h6.49q5.34,0,7.6,1a7.94,7.94,0,0,1,3.64,3.16A9.82,9.82,0,0,1,904.16,11a8.86,8.86,0,0,1-1.52,5.31,9.16,9.16,0,0,1-4.58,3.23l7.62,14.31H899l-7.22-13.63h-.57V33.88h-6.12Zm6.12,12.58h1.93a7.48,7.48,0,0,0,4-.76,2.92,2.92,0,0,0,1.1-2.55,3,3,0,0,0-2-3,11.43,11.43,0,0,0-3.35-.34h-1.69Z"/><polygon class="cls-1" points="910.67 1.69 928.24 1.69 928.24 7.69 916.75 7.69 916.75 13.51 928.24 13.51 928.24 19.4 916.75 19.4 916.75 27.87 928.24 27.87 928.24 33.88 910.67 33.88 910.67 1.69"/><path class="cls-1" d="M950.84,6.07l-4.54,4c-1.59-2.22-3.21-3.32-4.86-3.32a3.07,3.07,0,0,0-2,.64,1.93,1.93,0,0,0-.76,1.46,2.54,2.54,0,0,0,.54,1.53,40.87,40.87,0,0,0,4.5,4.13c2.34,2,3.75,3.19,4.25,3.7a13.17,13.17,0,0,1,2.64,3.6,9.06,9.06,0,0,1,.78,3.76,8.59,8.59,0,0,1-2.74,6.54,9.94,9.94,0,0,1-7.14,2.58,10.63,10.63,0,0,1-6-1.68,13.34,13.34,0,0,1-4.37-5.3l5.15-3.11c1.55,2.86,3.34,4.28,5.35,4.27a3.93,3.93,0,0,0,2.65-.92,2.73,2.73,0,0,0,1.07-2.12,3.66,3.66,0,0,0-.81-2.19A24.1,24.1,0,0,0,941,20.29q-5.26-4.29-6.8-6.62A8.41,8.41,0,0,1,932.65,9a7.59,7.59,0,0,1,2.55-5.74,8.87,8.87,0,0,1,6.3-2.4A9.91,9.91,0,0,1,946.09,2,16.73,16.73,0,0,1,950.84,6.07Z"/><path class="cls-1" d="M790.41,1.41h3.66a1.23,1.23,0,0,1,1.23,1.23V6.15a1.22,1.22,0,0,1-1.22,1.22h-3.66a1.23,1.23,0,0,1-1.23-1.23V2.63a1.23,1.23,0,0,1,1.23-1.23Z"/><path class="cls-1" d="M965.24,1.69h6.53c3.51,0,6,.32,7.6,1a7.67,7.67,0,0,1,3.68,3.16,9.74,9.74,0,0,1,1.35,5.21,8.78,8.78,0,0,1-1.77,5.61,9,9,0,0,1-4.78,3.1,26.85,26.85,0,0,1-6.45.51v13.6h-6.13Zm6.13,12.58h1.94a10.14,10.14,0,0,0,3.2-.33,2.85,2.85,0,0,0,1.41-1.08,3.22,3.22,0,0,0,.51-1.84A2.93,2.93,0,0,0,977,8.3a8.41,8.41,0,0,0-3.9-.64h-1.72Z"/><path class="cls-1" d="M1032.49,7.35l-4.29,4.08q-4.37-4.62-9.84-4.62a10.8,10.8,0,0,0-10.93,10.65v.28a11.51,11.51,0,0,0,1.4,5.72,10,10,0,0,0,4,3.92,11.39,11.39,0,0,0,5.68,1.43,11.72,11.72,0,0,0,4.88-1,17.08,17.08,0,0,0,4.85-3.63l4.16,4.34a23,23,0,0,1-6.74,4.83,18.37,18.37,0,0,1-7.25,1.34,17.15,17.15,0,0,1-14.89-25.52,16.14,16.14,0,0,1,6.24-6A17.6,17.6,0,0,1,1018.5.89a18.58,18.58,0,0,1,14,6.47Z"/><path class="cls-1" d="M1056.45,1.69h6.15V22.51a10.85,10.85,0,0,0,.47,3.8,3.84,3.84,0,0,0,1.56,1.79,4.88,4.88,0,0,0,2.61.66A5.08,5.08,0,0,0,1070,28a3.93,3.93,0,0,0,1.62-1.89,14.12,14.12,0,0,0,.45-4.39v-20h6.15V20.88a27.71,27.71,0,0,1-.55,6.74,9.47,9.47,0,0,1-2.09,3.64,9.59,9.59,0,0,1-3.55,2.59,12,12,0,0,1-4.69.84,11.18,11.18,0,0,1-6.09-1.61,9.25,9.25,0,0,1-3.71-4c-.74-1.61-1.12-4.34-1.12-8.18Z"/><rect class="cls-1" x="989.93" y="8.49" width="6.08" height="25.4"/><polygon class="cls-1" points="1034.68 1.69 1052.47 1.69 1052.47 7.73 1046.61 7.73 1046.61 33.88 1040.39 33.88 1040.39 7.73 1034.68 7.73 1034.68 1.69"/><path class="cls-1" d="M1085.77,1.69h6.49q5.34,0,7.6,1a7.83,7.83,0,0,1,3.64,3.16,9.73,9.73,0,0,1,1.37,5.23,8.86,8.86,0,0,1-1.52,5.31,9.2,9.2,0,0,1-4.58,3.24l7.62,14.31h-6.69l-7.24-13.63h-.56V33.88h-6.13Zm6.13,12.58h1.92a7.48,7.48,0,0,0,4-.76,2.88,2.88,0,0,0,1.1-2.55,3.19,3.19,0,0,0-.54-1.84A3.12,3.12,0,0,0,1096.92,8a11.54,11.54,0,0,0-3.36-.34h-1.68Z"/><path class="cls-1" d="M991.13,1.41h3.66A1.23,1.23,0,0,1,996,2.64V6.15a1.23,1.23,0,0,1-1.23,1.23h-3.66a1.22,1.22,0,0,1-1.22-1.22V2.65a1.23,1.23,0,0,1,1.23-1.23Z"/></g></g></svg>