<svg xmlns="http://www.w3.org/2000/svg" viewBox="0 0 187.21 34.16"><defs><style>.cls-1{fill:none;stroke:#fff;stroke-miterlimit:10;stroke-width:0.34px;}</style></defs><g id="Layer_2" data-name="Layer 2"><g id="Layer_1-2" data-name="Layer 1"><path class="cls-1" d="M.17,1h6.5c3.51,0,6,.33,7.6,1A7.8,7.8,0,0,1,18,5.13a9.76,9.76,0,0,1,1.34,5.22A8.72,8.72,0,0,1,17.53,16a9.15,9.15,0,0,1-4.78,3.11,27.45,27.45,0,0,1-6.46.5V33.17H.17ZM6.29,13.57h2a10.14,10.14,0,0,0,3.2-.33,2.82,2.82,0,0,0,1.41-1.09,3.19,3.19,0,0,0,.51-1.83,3,3,0,0,0-1.44-2.73A8.4,8.4,0,0,0,8,7H6.29Z"/><path class="cls-1" d="M67.43,6.64l-4.29,4.08Q58.77,6.1,53.3,6.1A10.8,10.8,0,0,0,42.37,16.75V17a11.51,11.51,0,0,0,1.4,5.72,10,10,0,0,0,4,3.92,11.39,11.39,0,0,0,5.68,1.43,11.72,11.72,0,0,0,4.88-1,17.08,17.08,0,0,0,4.85-3.63l4.16,4.34a23,23,0,0,1-6.74,4.83A18.37,18.37,0,0,1,53.35,34,17.14,17.14,0,0,1,38.43,8.47a16.2,16.2,0,0,1,6.24-6A17.59,17.59,0,0,1,53.43.17a18.58,18.58,0,0,1,14,6.47Z"/><path class="cls-1" d="M91.43,1h6.15V21.8a10.85,10.85,0,0,0,.47,3.8,3.78,3.78,0,0,0,1.56,1.79,4.88,4.88,0,0,0,2.61.66,5,5,0,0,0,2.79-.74,4,4,0,0,0,1.62-1.89,14.12,14.12,0,0,0,.45-4.39V1h6.15V20.17a27.79,27.79,0,0,1-.55,6.75,9.51,9.51,0,0,1-2.09,3.63A9.79,9.79,0,0,1,107,33.14a12,12,0,0,1-4.69.84,11.25,11.25,0,0,1-6.09-1.6,9.31,9.31,0,0,1-3.71-4Q91.43,26,91.43,20.2Z"/><rect class="cls-1" x="24.85" y="7.78" width="6.08" height="25.4"/><polygon class="cls-1" points="69.61 0.98 87.4 0.98 87.4 7.02 81.54 7.02 81.54 33.18 75.32 33.18 75.32 7.02 69.61 7.02 69.61 0.98"/><path class="cls-1" d="M120.71,1h6.49c3.55,0,6.09.32,7.6,1a7.86,7.86,0,0,1,3.64,3.17,9.73,9.73,0,0,1,1.37,5.23,8.83,8.83,0,0,1-1.52,5.3,9.12,9.12,0,0,1-4.58,3.23l7.62,14.31h-6.7l-7.2-13.65h-.57v13.6h-6.12Zm6.12,12.59h1.92a7.49,7.49,0,0,0,4-.77,2.88,2.88,0,0,0,1.1-2.55,3.14,3.14,0,0,0-.54-1.83,3,3,0,0,0-1.47-1.12A11.2,11.2,0,0,0,128.48,7h-1.65Z"/><polygon class="cls-1" points="146.31 0.98 163.89 0.98 163.89 6.98 152.4 6.98 152.4 12.8 163.89 12.8 163.89 18.69 152.4 18.69 152.4 27.16 163.89 27.16 163.89 33.18 146.31 33.18 146.31 0.98"/><path class="cls-1" d="M186.49,5.36l-4.54,4q-2.38-3.3-4.86-3.32a3.07,3.07,0,0,0-2,.64,1.93,1.93,0,0,0-.76,1.46,2.54,2.54,0,0,0,.54,1.53,42,42,0,0,0,4.5,4.14c2.34,2,3.75,3.18,4.25,3.69a13.17,13.17,0,0,1,2.64,3.6,9.06,9.06,0,0,1,.78,3.76,8.59,8.59,0,0,1-2.74,6.54A9.94,9.94,0,0,1,177.16,34a10.63,10.63,0,0,1-6-1.68,13.25,13.25,0,0,1-4.37-5.3l5.15-3.11c1.55,2.85,3.34,4.27,5.35,4.27a3.88,3.88,0,0,0,2.65-.92A2.73,2.73,0,0,0,181,25.12a3.66,3.66,0,0,0-.81-2.19,24.1,24.1,0,0,0-3.57-3.35q-5.26-4.29-6.8-6.62a8.41,8.41,0,0,1-1.53-4.65,7.59,7.59,0,0,1,2.55-5.74,8.87,8.87,0,0,1,6.3-2.4,9.91,9.91,0,0,1,4.59,1.12A16.73,16.73,0,0,1,186.49,5.36Z"/><path class="cls-1" d="M26.06.7h3.66A1.23,1.23,0,0,1,31,1.93V5.44a1.23,1.23,0,0,1-1.23,1.23H26.06a1.22,1.22,0,0,1-1.22-1.22V1.94A1.23,1.23,0,0,1,26.07.71Z"/></g></g></svg>